<svg xmlns="http://www.w3.org/2000/svg" width="1104.198974609375" height="789.832275390625" viewBox="-563.1929931640625 -395.24945068359375 1104.198974609375 789.832275390625"><title>Neo4j Graph Visualization</title><desc>Created using Neo4j (http://www.neo4j.com/)</desc><g class="layer relationships"><g class="relationship" transform="translate(83 -366.24945645486923) rotate(442.04814598191336)"><path class="outline" fill="#A5ABB6" stroke="none" d="M 25 0.5 L 106.63506219513499 0.5 L 106.63506219513499 -0.5 L 25 -0.5 Z M 155.322562195135 0.5 L 236.95762439026998 0.5 L 236.95762439026998 3.5 L 243.95762439026998 0 L 236.95762439026998 -3.5 L 236.95762439026998 -0.5 L 155.322562195135 -0.5 Z"/><text text-anchor="middle" pointer-events="none" font-size="8px" fill="#000000" x="130.978812195135" y="3" font-family="sans-serif">composition</text></g><g class="relationship" transform="translate(83 -366.24945645486923) rotate(415.0045602412874)"><path class="outline" fill="#A5ABB6" stroke="none" d="M 25 0.5 L 54.935799262357534 0.5 L 54.935799262357534 -0.5 L 25 -0.5 Z M 103.62329926235753 0.5 L 133.55909852471507 0.5 L 133.55909852471507 3.5 L 140.55909852471507 0 L 133.55909852471507 -3.5 L 133.55909852471507 -0.5 L 103.62329926235753 -0.5 Z"/><text text-anchor="middle" pointer-events="none" font-size="8px" fill="#000000" x="79.27954926235753" y="3" font-family="sans-serif">composition</text></g><g class="relationship" transform="translate(83 -366.24945645486923) rotate(498.0006836280601)"><path class="outline" fill="#A5ABB6" stroke="none" d="M 25 0.5 L 58.53878348094456 0.5 L 58.53878348094456 -0.5 L 25 -0.5 Z M 107.22628348094456 0.5 L 140.76506696188912 0.5 L 140.76506696188912 3.5 L 147.76506696188912 0 L 140.76506696188912 -3.5 L 140.76506696188912 -0.5 L 107.22628348094456 -0.5 Z"/><text text-anchor="middle" pointer-events="none" font-size="8px" fill="#000000" x="82.88253348094456" y="3" transform="rotate(180 82.88253348094456 0)" font-family="sans-serif">composition</text></g><g class="relationship" transform="translate(83 -366.24945645486923) rotate(481.55594794356443)"><path class="outline" fill="#A5ABB6" stroke="none" d="M 25 0.5 L 90.01303389629695 0.5 L 90.01303389629695 -0.5 L 25 -0.5 Z M 138.70053389629695 0.5 L 203.7135677925939 0.5 L 203.7135677925939 3.5 L 210.7135677925939 0 L 203.7135677925939 -3.5 L 203.7135677925939 -0.5 L 138.70053389629695 -0.5 Z"/><text text-anchor="middle" pointer-events="none" font-size="8px" fill="#000000" x="114.35678389629695" y="3" transform="rotate(180 114.35678389629695 0)" font-family="sans-serif">composition</text></g><g class="relationship" transform="translate(83 -366.24945645486923) rotate(461.42292795445786)"><path class="outline" fill="#A5ABB6" stroke="none" d="M 25 0.5 L 121.58577029720476 0.5 L 121.58577029720476 -0.5 L 25 -0.5 Z M 170.27327029720476 0.5 L 266.8590405944095 0.5 L 266.8590405944095 3.5 L 273.8590405944095 0 L 266.8590405944095 -3.5 L 266.8590405944095 -0.5 L 170.27327029720476 -0.5 Z"/><text text-anchor="middle" pointer-events="none" font-size="8px" fill="#000000" x="145.92952029720476" y="3" transform="rotate(180 145.92952029720476 0)" font-family="sans-serif">composition</text></g><g class="relationship" transform="translate(23.811087155089304 -73.31021575596853) rotate(446.33898017358575)"><path class="outline" fill="#A5ABB6" stroke="none" d="M 25 0.5 L 43.62412110208195 0.5 L 43.62412110208195 -0.5 L 25 -0.5 Z M 75.86630860208194 0.5 L 94.4904297041639 0.5 L 94.4904297041639 3.5 L 101.4904297041639 0 L 94.4904297041639 -3.5 L 94.4904297041639 -0.5 L 75.86630860208194 -0.5 Z"/><text text-anchor="middle" pointer-events="none" font-size="8px" fill="#000000" x="59.74521485208195" y="3" font-family="sans-serif">content</text></g><g class="relationship" transform="translate(31.887928511864132 52.92208375743462) rotate(432.8008468179804)"><path class="outline" fill="#A5ABB6" stroke="none" d="M 25 0.5 L 48.38042024233423 0.5 L 48.38042024233423 -0.5 L 25 -0.5 Z M 69.95073274233422 0.5 L 93.33115298466846 0.5 L 93.33115298466846 3.5 L 100.33115298466846 0 L 93.33115298466846 -3.5 L 93.33115298466846 -0.5 L 69.95073274233422 -0.5 Z"/><text text-anchor="middle" pointer-events="none" font-size="8px" fill="#000000" x="59.16557649233423" y="3" font-family="sans-serif">data</text></g><g class="relationship" transform="translate(68.94758984286096 172.64877004958166) rotate(426.70176996229)"><path class="outline" fill="#A5ABB6" stroke="none" d="M 25 0.5 L 58.75693616733726 0.5 L 58.75693616733726 -0.5 L 25 -0.5 Z M 83.87021741733726 0.5 L 117.62715358467452 0.5 L 117.62715358467452 3.5 L 124.62715358467452 0 L 117.62715358467452 -3.5 L 117.62715358467452 -0.5 L 83.87021741733726 -0.5 Z"/><text text-anchor="middle" pointer-events="none" font-size="8px" fill="#000000" x="71.31357679233726" y="3" font-family="sans-serif">items</text></g><g class="relationship" transform="translate(68.94758984286096 172.64877004958166) rotate(402.4338060929347)"><path class="outline" fill="#A5ABB6" stroke="none" d="M 25 0.5 L 59.586518070205415 0.5 L 59.586518070205415 -0.5 L 25 -0.5 Z M 84.69979932020541 0.5 L 119.28631739041083 0.5 L 119.28631739041083 3.5 L 126.28631739041083 0 L 119.28631739041083 -3.5 L 119.28631739041083 -0.5 L 84.69979932020541 -0.5 Z"/><text text-anchor="middle" pointer-events="none" font-size="8px" fill="#000000" x="72.14315869520541" y="3" font-family="sans-serif">items</text></g><g class="relationship" transform="translate(68.94758984286096 172.64877004958166) rotate(376.99839131869817)"><path class="outline" fill="#A5ABB6" stroke="none" d="M 25 0.5 L 50.52320760597662 0.5 L 50.52320760597662 -0.5 L 25 -0.5 Z M 75.63648885597662 0.5 L 101.15969646195325 0.5 L 101.15969646195325 3.5 L 108.15969646195325 0 L 101.15969646195325 -3.5 L 101.15969646195325 -0.5 L 75.63648885597662 -0.5 Z"/><text text-anchor="middle" pointer-events="none" font-size="8px" fill="#000000" x="63.07984823097662" y="3" font-family="sans-serif">items</text></g><g class="relationship" transform="translate(68.94758984286096 172.64877004958166) rotate(512.9928617899276)"><path class="outline" fill="#A5ABB6" stroke="none" d="M 25 0.5 L 32.7036975536649 0.5 L 32.7036975536649 -0.5 L 25 -0.5 Z M 57.8169788036649 0.5 L 65.5206763573298 0.5 L 65.5206763573298 3.5 L 72.5206763573298 0 L 65.5206763573298 -3.5 L 65.5206763573298 -0.5 L 57.8169788036649 -0.5 Z"/><text text-anchor="middle" pointer-events="none" font-size="8px" fill="#000000" x="45.2603381786649" y="3" transform="rotate(180 45.2603381786649 0)" font-family="sans-serif">items</text></g><g class="relationship" transform="translate(68.94758984286096 172.64877004958166) rotate(482.31179292649585)"><path class="outline" fill="#A5ABB6" stroke="none" d="M 25 0.5 L 42.57273481954245 0.5 L 42.57273481954245 -0.5 L 25 -0.5 Z M 67.68601606954245 0.5 L 85.2587508890849 0.5 L 85.2587508890849 3.5 L 92.2587508890849 0 L 85.2587508890849 -3.5 L 85.2587508890849 -0.5 L 67.68601606954245 -0.5 Z"/><text text-anchor="middle" pointer-events="none" font-size="8px" fill="#000000" x="55.12937544454245" y="3" transform="rotate(180 55.12937544454245 0)" font-family="sans-serif">items</text></g><g class="relationship" transform="translate(6.269701896473375 271.75021818556274) rotate(435.0743456719003)"><path class="outline" fill="#A5ABB6" stroke="none" d="M 25 0.5 L 32.49787045184363 0.5 L 32.49787045184363 -0.5 L 25 -0.5 Z M 57.61115170184363 0.5 L 65.10902215368726 0.5 L 65.10902215368726 3.5 L 72.10902215368726 0 L 65.10902215368726 -3.5 L 65.10902215368726 -0.5 L 57.61115170184363 -0.5 Z"/><text text-anchor="middle" pointer-events="none" font-size="8px" fill="#000000" x="45.05451107684363" y="3" font-family="sans-serif">items</text></g><g class="relationship" transform="translate(120.20784622531262 -99.87794916302123) rotate(389.3886275399073)"><path class="outline" fill="#A5ABB6" stroke="none" d="M 25 0.5 L 44.67858066971408 0.5 L 44.67858066971408 -0.5 L 25 -0.5 Z M 76.47154941971408 0.5 L 96.15013008942816 0.5 L 96.15013008942816 3.5 L 103.15013008942816 0 L 96.15013008942816 -3.5 L 96.15013008942816 -0.5 L 76.47154941971408 -0.5 Z"/><text text-anchor="middle" pointer-events="none" font-size="8px" fill="#000000" x="60.57506504471408" y="3" font-family="sans-serif">context</text></g><g class="relationship" transform="translate(231.86649394280067 -36.99073081271369) rotate(422.20458054192335)"><path class="outline" fill="#A5ABB6" stroke="none" d="M 25 0.5 L 36.49238719489968 0.5 L 36.49238719489968 -0.5 L 25 -0.5 Z M 90.96894969489968 0.5 L 102.46133688979936 0.5 L 102.46133688979936 3.5 L 109.46133688979936 0 L 102.46133688979936 -3.5 L 102.46133688979936 -0.5 L 90.96894969489968 -0.5 Z"/><text text-anchor="middle" pointer-events="none" font-size="8px" fill="#000000" x="63.73066844489968" y="3" font-family="sans-serif">other_context</text></g><g class="relationship" transform="translate(294.5679560326169 81.95622278422151) rotate(388.57892032880994)"><path class="outline" fill="#A5ABB6" stroke="none" d="M 25 0.5 L 40.23262808539966 0.5 L 40.23262808539966 -0.5 L 25 -0.5 Z M 65.34590933539965 0.5 L 80.57853742079932 0.5 L 80.57853742079932 3.5 L 87.57853742079932 0 L 80.57853742079932 -3.5 L 80.57853742079932 -0.5 L 65.34590933539965 -0.5 Z"/><text text-anchor="middle" pointer-events="none" font-size="8px" fill="#000000" x="52.78926871039966" y="3" font-family="sans-serif">items</text></g><g class="relationship" transform="translate(393.42981540661066 135.8102834382056) rotate(413.1228610148739)"><path class="outline" fill="#A5ABB6" stroke="none" d="M 25 0.5 L 51.95183273594752 0.5 L 51.95183273594752 -0.5 L 25 -0.5 Z M 77.06511398594752 0.5 L 104.01694672189504 0.5 L 104.01694672189504 3.5 L 111.01694672189504 0 L 104.01694672189504 -3.5 L 104.01694672189504 -0.5 L 77.06511398594752 -0.5 Z"/><text text-anchor="middle" pointer-events="none" font-size="8px" fill="#000000" x="64.50847336094752" y="3" font-family="sans-serif">items</text></g><g class="relationship" transform="translate(177.9500034278694 -230.6238248310353) rotate(366.28061381815144)"><path class="outline" fill="#A5ABB6" stroke="none" d="M 25 0.5 L 36.513266155918885 0.5 L 36.513266155918885 -0.5 L 25 -0.5 Z M 68.75545365591888 0.5 L 80.26871981183777 0.5 L 80.26871981183777 3.5 L 87.26871981183777 0 L 80.26871981183777 -3.5 L 80.26871981183777 -0.5 L 68.75545365591888 -0.5 Z"/><text text-anchor="middle" pointer-events="none" font-size="8px" fill="#000000" x="52.634359905918885" y="3" font-family="sans-serif">content</text></g><g class="relationship" transform="translate(289.54488946625173 -218.34185193294616) rotate(393.60441703725485)"><path class="outline" fill="#A5ABB6" stroke="none" d="M 25 0.5 L 42.28560192208729 0.5 L 42.28560192208729 -0.5 L 25 -0.5 Z M 63.85591442208729 0.5 L 81.14151634417458 0.5 L 81.14151634417458 3.5 L 88.14151634417458 0 L 81.14151634417458 -3.5 L 81.14151634417458 -0.5 L 63.85591442208729 -0.5 Z"/><text text-anchor="middle" pointer-events="none" font-size="8px" fill="#000000" x="53.07075817208729" y="3" font-family="sans-serif">data</text></g><g class="relationship" transform="translate(383.7780345149381 -155.72302812658296) rotate(400.98760415133074)"><path class="outline" fill="#A5ABB6" stroke="none" d="M 25 0.5 L 52.42245522642422 0.5 L 52.42245522642422 -0.5 L 25 -0.5 Z M 77.53573647642422 0.5 L 104.95819170284844 0.5 L 104.95819170284844 3.5 L 111.95819170284844 0 L 104.95819170284844 -3.5 L 104.95819170284844 -0.5 L 77.53573647642422 -0.5 Z"/><text text-anchor="middle" pointer-events="none" font-size="8px" fill="#000000" x="64.97909585142422" y="3" font-family="sans-serif">items</text></g><g class="relationship" transform="translate(383.7780345149381 -155.72302812658296) rotate(371.0560987257754)"><path class="outline" fill="#A5ABB6" stroke="none" d="M 25 0.5 L 49.26981674738539 0.5 L 49.26981674738539 -0.5 L 25 -0.5 Z M 74.38309799738539 0.5 L 98.65291474477078 0.5 L 98.65291474477078 3.5 L 105.65291474477078 0 L 98.65291474477078 -3.5 L 98.65291474477078 -0.5 L 74.38309799738539 -0.5 Z"/><text text-anchor="middle" pointer-events="none" font-size="8px" fill="#000000" x="61.82645737238539" y="3" font-family="sans-serif">items</text></g><g class="relationship" transform="translate(383.7780345149381 -155.72302812658296) rotate(334.8155911542817)"><path class="outline" fill="#A5ABB6" stroke="none" d="M 25 0.5 L 45.32278902775218 0.5 L 45.32278902775218 -0.5 L 25 -0.5 Z M 70.43607027775218 0.5 L 90.75885930550436 0.5 L 90.75885930550436 3.5 L 97.75885930550436 0 L 90.75885930550436 -3.5 L 90.75885930550436 -0.5 L 70.43607027775218 -0.5 Z"/><text text-anchor="middle" pointer-events="none" font-size="8px" fill="#000000" x="57.87942965275218" y="3" font-family="sans-serif">items</text></g><g class="relationship" transform="translate(383.7780345149381 -155.72302812658296) rotate(288.5046705423589)"><path class="outline" fill="#A5ABB6" stroke="none" d="M 25 0.5 L 43.52967461152447 0.5 L 43.52967461152447 -0.5 L 25 -0.5 Z M 68.64295586152447 0.5 L 87.17263047304894 0.5 L 87.17263047304894 3.5 L 94.17263047304894 0 L 87.17263047304894 -3.5 L 87.17263047304894 -0.5 L 68.64295586152447 -0.5 Z"/><text text-anchor="middle" pointer-events="none" font-size="8px" fill="#000000" x="56.08631523652447" y="3" font-family="sans-serif">items</text></g><g class="relationship" transform="translate(383.7780345149381 -155.72302812658296) rotate(431.5675353333747)"><path class="outline" fill="#A5ABB6" stroke="none" d="M 25 0.5 L 46.18177574609192 0.5 L 46.18177574609192 -0.5 L 25 -0.5 Z M 71.29505699609192 0.5 L 92.47683274218384 0.5 L 92.47683274218384 3.5 L 99.47683274218384 0 L 92.47683274218384 -3.5 L 92.47683274218384 -0.5 L 71.29505699609192 -0.5 Z"/><text text-anchor="middle" pointer-events="none" font-size="8px" fill="#000000" x="58.73841637109192" y="3" font-family="sans-serif">items</text></g><g class="relationship" transform="translate(-45.390844843803436 -250.64859433593685) rotate(216.0798407554546)"><path class="outline" fill="#A5ABB6" stroke="none" d="M 25 0.5 L 37.45419414579921 0.5 L 37.45419414579921 -0.5 L 25 -0.5 Z M 69.6963816457992 0.5 L 82.15057579159841 0.5 L 82.15057579159841 3.5 L 89.15057579159841 0 L 82.15057579159841 -3.5 L 82.15057579159841 -0.5 L 69.6963816457992 -0.5 Z"/><text text-anchor="middle" pointer-events="none" font-size="8px" fill="#000000" x="53.57528789579921" y="3" transform="rotate(180 53.57528789579921 0)" font-family="sans-serif">content</text></g><g class="relationship" transform="translate(-40.35619310108847 -165.390959833191) rotate(521.4176112136627)"><path class="outline" fill="#A5ABB6" stroke="none" d="M 25 0.5 L 42.0333042362602 0.5 L 42.0333042362602 -0.5 L 25 -0.5 Z M 74.2754917362602 0.5 L 91.3087959725204 0.5 L 91.3087959725204 3.5 L 98.3087959725204 0 L 91.3087959725204 -3.5 L 91.3087959725204 -0.5 L 74.2754917362602 -0.5 Z"/><text text-anchor="middle" pointer-events="none" font-size="8px" fill="#000000" x="58.1543979862602" y="3" transform="rotate(180 58.1543979862602 0)" font-family="sans-serif">content</text></g><g class="relationship" transform="translate(-157.2364582355131 -126.09639549791348) rotate(508.03214774873527)"><path class="outline" fill="#A5ABB6" stroke="none" d="M 25 0.5 L 37.84203999966078 0.5 L 37.84203999966078 -0.5 L 25 -0.5 Z M 59.41235249966078 0.5 L 72.25439249932155 0.5 L 72.25439249932155 3.5 L 79.25439249932155 0 L 72.25439249932155 -3.5 L 72.25439249932155 -0.5 L 59.41235249966078 -0.5 Z"/><text text-anchor="middle" pointer-events="none" font-size="8px" fill="#000000" x="48.62719624966078" y="3" transform="rotate(180 48.62719624966078 0)" font-family="sans-serif">data</text></g><g class="relationship" transform="translate(-245.68018127274428 -70.89960020401857) rotate(410.84658829120065)"><path class="outline" fill="#A5ABB6" stroke="none" d="M 25 0.5 L 36.382403272805846 0.5 L 36.382403272805846 -0.5 L 25 -0.5 Z M 65.95271577280585 0.5 L 77.33511904561169 0.5 L 77.33511904561169 3.5 L 84.33511904561169 0 L 77.33511904561169 -3.5 L 77.33511904561169 -0.5 L 65.95271577280585 -0.5 Z"/><text text-anchor="middle" pointer-events="none" font-size="8px" fill="#000000" x="51.167559522805846" y="3" font-family="sans-serif">events</text></g><g class="relationship" transform="translate(-176.64609954190604 13.885208672914246) rotate(455.2131598912832)"><path class="outline" fill="#A5ABB6" stroke="none" d="M 25 0.5 L 35.58642183105097 0.5 L 35.58642183105097 -0.5 L 25 -0.5 Z M 57.15673433105097 0.5 L 67.74315616210194 0.5 L 67.74315616210194 3.5 L 74.74315616210194 0 L 67.74315616210194 -3.5 L 67.74315616210194 -0.5 L 57.15673433105097 -0.5 Z"/><text text-anchor="middle" pointer-events="none" font-size="8px" fill="#000000" x="46.37157808105097" y="3" transform="rotate(180 46.37157808105097 0)" font-family="sans-serif">data</text></g><g class="relationship" transform="translate(-185.70889396797827 113.21578280982442) rotate(471.81884863848757)"><path class="outline" fill="#A5ABB6" stroke="none" d="M 25 0.5 L 34.03979541601601 0.5 L 34.03979541601601 -0.5 L 25 -0.5 Z M 59.15307666601601 0.5 L 68.19287208203203 0.5 L 68.19287208203203 3.5 L 75.19287208203203 0 L 68.19287208203203 -3.5 L 68.19287208203203 -0.5 L 59.15307666601601 -0.5 Z"/><text text-anchor="middle" pointer-events="none" font-size="8px" fill="#000000" x="46.59643604101601" y="3" transform="rotate(180 46.59643604101601 0)" font-family="sans-serif">items</text></g><g class="relationship" transform="translate(-222.94790538110232 206.23119897843407) rotate(461.39746440781795)"><path class="outline" fill="#A5ABB6" stroke="none" d="M 25 0.5 L 53.75385487105842 0.5 L 53.75385487105842 -0.5 L 25 -0.5 Z M 78.86713612105842 0.5 L 107.62099099211684 0.5 L 107.62099099211684 3.5 L 114.62099099211684 0 L 107.62099099211684 -3.5 L 107.62099099211684 -0.5 L 78.86713612105842 -0.5 Z"/><text text-anchor="middle" pointer-events="none" font-size="8px" fill="#000000" x="66.31049549605842" y="3" transform="rotate(180 66.31049549605842 0)" font-family="sans-serif">items</text></g><g class="relationship" transform="translate(-222.94790538110232 206.23119897843407) rotate(436.4951822592984)"><path class="outline" fill="#A5ABB6" stroke="none" d="M 25 0.5 L 58.44692149467082 0.5 L 58.44692149467082 -0.5 L 25 -0.5 Z M 83.56020274467082 0.5 L 117.00712423934164 0.5 L 117.00712423934164 3.5 L 124.00712423934164 0 L 117.00712423934164 -3.5 L 117.00712423934164 -0.5 L 83.56020274467082 -0.5 Z"/><text text-anchor="middle" pointer-events="none" font-size="8px" fill="#000000" x="71.00356211967082" y="3" font-family="sans-serif">items</text></g><g class="relationship" transform="translate(-222.94790538110232 206.23119897843407) rotate(411.4059549143018)"><path class="outline" fill="#A5ABB6" stroke="none" d="M 25 0.5 L 50.51986547013546 0.5 L 50.51986547013546 -0.5 L 25 -0.5 Z M 75.63314672013546 0.5 L 101.15301219027091 0.5 L 101.15301219027091 3.5 L 108.15301219027091 0 L 101.15301219027091 -3.5 L 101.15301219027091 -0.5 L 75.63314672013546 -0.5 Z"/><text text-anchor="middle" pointer-events="none" font-size="8px" fill="#000000" x="63.07650609513546" y="3" font-family="sans-serif">items</text></g><g class="relationship" transform="translate(-222.94790538110232 206.23119897843407) rotate(491.87510848117205)"><path class="outline" fill="#A5ABB6" stroke="none" d="M 25 0.5 L 47.50147774633303 0.5 L 47.50147774633303 -0.5 L 25 -0.5 Z M 72.61475899633302 0.5 L 95.11623674266606 0.5 L 95.11623674266606 3.5 L 102.11623674266606 0 L 95.11623674266606 -3.5 L 95.11623674266606 -0.5 L 72.61475899633302 -0.5 Z"/><text text-anchor="middle" pointer-events="none" font-size="8px" fill="#000000" x="60.05811837133303" y="3" transform="rotate(180 60.05811837133303 0)" font-family="sans-serif">items</text></g><g class="relationship" transform="translate(-137.6470137035761 -317.87324205439324) rotate(523.9397178882357)"><path class="outline" fill="#A5ABB6" stroke="none" d="M 25 0.5 L 44.727309524111966 0.5 L 44.727309524111966 -0.5 L 25 -0.5 Z M 66.29762202411197 0.5 L 86.02493154822393 0.5 L 86.02493154822393 3.5 L 93.02493154822393 0 L 86.02493154822393 -3.5 L 86.02493154822393 -0.5 L 66.29762202411197 -0.5 Z"/><text text-anchor="middle" pointer-events="none" font-size="8px" fill="#000000" x="55.512465774111966" y="3" transform="rotate(180 55.512465774111966 0)" font-family="sans-serif">data</text></g><g class="relationship" transform="translate(-251.06556908376177 -285.2218138707027) rotate(505.4134791424422)"><path class="outline" fill="#A5ABB6" stroke="none" d="M 25 0.5 L 36.26766517549749 0.5 L 36.26766517549749 -0.5 L 25 -0.5 Z M 65.83797767549748 0.5 L 77.10564285099498 0.5 L 77.10564285099498 3.5 L 84.10564285099498 0 L 77.10564285099498 -3.5 L 77.10564285099498 -0.5 L 65.83797767549748 -0.5 Z"/><text text-anchor="middle" pointer-events="none" font-size="8px" fill="#000000" x="51.05282142549749" y="3" transform="rotate(180 51.05282142549749 0)" font-family="sans-serif">events</text></g><g class="relationship" transform="translate(-340.8889644805145 -223.2879867539526) rotate(486.007346719979)"><path class="outline" fill="#A5ABB6" stroke="none" d="M 25 0.5 L 41.773837192756226 0.5 L 41.773837192756226 -0.5 L 25 -0.5 Z M 63.344149692756226 0.5 L 80.11798688551245 0.5 L 80.11798688551245 3.5 L 87.11798688551245 0 L 80.11798688551245 -3.5 L 80.11798688551245 -0.5 L 63.344149692756226 -0.5 Z"/><text text-anchor="middle" pointer-events="none" font-size="8px" fill="#000000" x="52.558993442756226" y="3" transform="rotate(180 52.558993442756226 0)" font-family="sans-serif">data</text></g><g class="relationship" transform="translate(-406.8018937914917 -132.59108089214237) rotate(466.80341322598736)"><path class="outline" fill="#A5ABB6" stroke="none" d="M 25 0.5 L 36.71428462202123 0.5 L 36.71428462202123 -0.5 L 25 -0.5 Z M 61.82756587202123 0.5 L 73.54185049404246 0.5 L 73.54185049404246 3.5 L 80.54185049404246 0 L 73.54185049404246 -3.5 L 73.54185049404246 -0.5 L 61.82756587202123 -0.5 Z"/><text text-anchor="middle" pointer-events="none" font-size="8px" fill="#000000" x="49.27092524702123" y="3" transform="rotate(180 49.27092524702123 0)" font-family="sans-serif">items</text></g><g class="relationship" transform="translate(-437.3128634340146 -31.555627029748813) rotate(453.87694408589465)"><path class="outline" fill="#A5ABB6" stroke="none" d="M 25 0.5 L 49.103049682076744 0.5 L 49.103049682076744 -0.5 L 25 -0.5 Z M 74.21633093207674 0.5 L 98.31938061415349 0.5 L 98.31938061415349 3.5 L 105.31938061415349 0 L 98.31938061415349 -3.5 L 98.31938061415349 -0.5 L 74.21633093207674 -0.5 Z"/><text text-anchor="middle" pointer-events="none" font-size="8px" fill="#000000" x="61.659690307076744" y="3" transform="rotate(180 61.659690307076744 0)" font-family="sans-serif">items</text></g><g class="relationship" transform="translate(-437.3128634340146 -31.555627029748813) rotate(414.61631303728547)"><path class="outline" fill="#A5ABB6" stroke="none" d="M 25 0.5 L 41.631215247422 0.5 L 41.631215247422 -0.5 L 25 -0.5 Z M 66.744496497422 0.5 L 83.375711744844 0.5 L 83.375711744844 3.5 L 90.375711744844 0 L 83.375711744844 -3.5 L 83.375711744844 -0.5 L 66.744496497422 -0.5 Z"/><text text-anchor="middle" pointer-events="none" font-size="8px" fill="#000000" x="54.187855872422" y="3" font-family="sans-serif">items</text></g><g class="relationship" transform="translate(-437.3128634340146 -31.555627029748813) rotate(204.41917324216354)"><path class="outline" fill="#A5ABB6" stroke="none" d="M 25 0.5 L 37.142309402752396 0.5 L 37.142309402752396 -0.5 L 25 -0.5 Z M 62.255590652752396 0.5 L 74.39790005550479 0.5 L 74.39790005550479 3.5 L 81.39790005550479 0 L 74.39790005550479 -3.5 L 74.39790005550479 -0.5 L 62.255590652752396 -0.5 Z"/><text text-anchor="middle" pointer-events="none" font-size="8px" fill="#000000" x="49.698950027752396" y="3" transform="rotate(180 49.698950027752396 0)" font-family="sans-serif">items</text></g><g class="relationship" transform="translate(-437.3128634340146 -31.555627029748813) rotate(490.71942435368175)"><path class="outline" fill="#A5ABB6" stroke="none" d="M 25 0.5 L 44.12339782859733 0.5 L 44.12339782859733 -0.5 L 25 -0.5 Z M 69.23667907859732 0.5 L 88.36007690719465 0.5 L 88.36007690719465 3.5 L 95.36007690719465 0 L 88.36007690719465 -3.5 L 88.36007690719465 -0.5 L 69.23667907859732 -0.5 Z"/><text text-anchor="middle" pointer-events="none" font-size="8px" fill="#000000" x="56.68003845359733" y="3" transform="rotate(180 56.68003845359733 0)" font-family="sans-serif">items</text></g></g><g class="layer nodes"><g class="node" transform="translate(83,-366.24945645486923)"><circle class="outline" cx="0" cy="0" r="25" fill="#6DCE9E" stroke="#60B58B" stroke-width="2px"/><text text-anchor="middle" pointer-events="none" y="5" font-size="10px" fill="#FFFFFF" font-family="sans-serif"> 3B347C…</text></g><g class="node" transform="translate(120.20784622531262,-99.87794916302123)"><circle class="outline" cx="0" cy="0" r="25" fill="#68BDF6" stroke="#5CA8DB" stroke-width="2px"/><text text-anchor="middle" pointer-events="none" y="0" font-size="10px" fill="#FFFFFF" font-family="sans-serif"> Health</text><text text-anchor="middle" pointer-events="none" y="10" font-size="10px" fill="#FFFFFF" font-family="sans-serif"> Summary</text></g><g class="node" transform="translate(177.9500034278694,-230.6238248310353)"><circle class="outline" cx="0" cy="0" r="25" fill="#68BDF6" stroke="#5CA8DB" stroke-width="2px"/><text text-anchor="middle" pointer-events="none" y="0" font-size="10px" fill="#FFFFFF" font-family="sans-serif"> Obstetric</text><text text-anchor="middle" pointer-events="none" y="10" font-size="10px" fill="#FFFFFF" font-family="sans-serif"> History</text></g><g class="node" transform="translate(-45.390844843803436,-250.64859433593685)"><circle class="outline" cx="0" cy="0" r="25" fill="#68BDF6" stroke="#5CA8DB" stroke-width="2px"/><text text-anchor="middle" pointer-events="none" y="0" font-size="10px" fill="#FFFFFF" font-family="sans-serif"> Self</text><text text-anchor="middle" pointer-events="none" y="10" font-size="10px" fill="#FFFFFF" font-family="sans-serif"> Monitori…</text></g><g class="node" transform="translate(-40.35619310108847,-165.390959833191)"><circle class="outline" cx="0" cy="0" r="25" fill="#68BDF6" stroke="#5CA8DB" stroke-width="2px"/><text text-anchor="middle" pointer-events="none" y="0" font-size="10px" fill="#FFFFFF" font-family="sans-serif"> Self</text><text text-anchor="middle" pointer-events="none" y="10" font-size="10px" fill="#FFFFFF" font-family="sans-serif"> Monitori…</text></g><g class="node" transform="translate(23.811087155089304,-73.31021575596853)"><circle class="outline" cx="0" cy="0" r="25" fill="#68BDF6" stroke="#5CA8DB" stroke-width="2px"/><text text-anchor="middle" pointer-events="none" y="5" font-size="10px" fill="#FFFFFF" font-family="sans-serif"> Pregnan…</text></g><g class="node" transform="translate(31.887928511864132,52.92208375743462)"><circle class="outline" cx="0" cy="0" r="25" fill="#FF756E" stroke="#E06760" stroke-width="2px"/><text text-anchor="middle" pointer-events="none" y="5" font-size="10px" fill="#FFFFFF" font-family="sans-serif"> Pregnan…</text></g><g class="node" transform="translate(68.94758984286096,172.64877004958166)"><circle class="outline" cx="0" cy="0" r="25" fill="#DE9BF9" stroke="#BF85D6" stroke-width="2px"/><text text-anchor="middle" pointer-events="none" y="5" font-size="10px" fill="#FFFFFF" font-family="sans-serif"> at0001</text></g><g class="node" transform="translate(128.12769220354082,310.0751160478335)"><circle class="outline" cx="0" cy="0" r="25" fill="#FB95AF" stroke="#E0849B" stroke-width="2px"/><text text-anchor="middle" pointer-events="none" y="5" font-size="10px" fill="#FFFFFF" font-family="sans-serif"> EDB</text></g><g class="node" transform="translate(180.60556911428446,274.7273941320725)"><circle class="outline" cx="0" cy="0" r="25" fill="#FB95AF" stroke="#E0849B" stroke-width="2px"/><text text-anchor="middle" pointer-events="none" y="0" font-size="10px" fill="#FFFFFF" font-family="sans-serif"> Date of</text><text text-anchor="middle" pointer-events="none" y="10" font-size="10px" fill="#FFFFFF" font-family="sans-serif"> Concep…</text></g><g class="node" transform="translate(196.28993391081403,211.57732215621132)"><circle class="outline" cx="0" cy="0" r="25" fill="#FB95AF" stroke="#E0849B" stroke-width="2px"/><text text-anchor="middle" pointer-events="none" y="0" font-size="10px" fill="#FFFFFF" font-family="sans-serif"> Assisted</text><text text-anchor="middle" pointer-events="none" y="10" font-size="10px" fill="#FFFFFF" font-family="sans-serif"> Reprod…</text></g><g class="node" transform="translate(-17.938452539479353,216.9330557085513)"><circle class="outline" cx="0" cy="0" r="25" fill="#FB95AF" stroke="#E0849B" stroke-width="2px"/><text text-anchor="middle" pointer-events="none" y="-5" font-size="10px" fill="#FFFFFF" font-family="sans-serif"> Planned</text><text text-anchor="middle" pointer-events="none" y="5" font-size="10px" fill="#FFFFFF" font-family="sans-serif"> Place of</text><text text-anchor="middle" pointer-events="none" y="15" font-size="10px" fill="#FFFFFF" font-family="sans-serif"> Birth</text></g><g class="node" transform="translate(6.269701896473375,271.75021818556274)"><circle class="outline" cx="0" cy="0" r="25" fill="#A5ABB6" stroke="#9AA1AC" stroke-width="2px"/><text text-anchor="middle" pointer-events="none" y="5" font-size="10px" fill="#FFFFFF" font-family="sans-serif"> NULL</text></g><g class="node" transform="translate(31.281632310494302,365.58286453324655)"><circle class="outline" cx="0" cy="0" r="25" fill="#FB95AF" stroke="#E0849B" stroke-width="2px"/><text text-anchor="middle" pointer-events="none" y="0" font-size="10px" fill="#FFFFFF" font-family="sans-serif"> Model of</text><text text-anchor="middle" pointer-events="none" y="10" font-size="10px" fill="#FFFFFF" font-family="sans-serif"> Care</text></g><g class="node" transform="translate(231.86649394280067,-36.99073081271369)"><circle class="outline" cx="0" cy="0" r="25" fill="#A5ABB6" stroke="#9AA1AC" stroke-width="2px"/><text text-anchor="middle" pointer-events="none" y="5" font-size="10px" fill="#FFFFFF" font-family="sans-serif"> Hospital</text></g><g class="node" transform="translate(294.5679560326169,81.95622278422151)"><circle class="outline" cx="0" cy="0" r="25" fill="#DE9BF9" stroke="#BF85D6" stroke-width="2px"/><text text-anchor="middle" pointer-events="none" y="5" font-size="10px" fill="#FFFFFF" font-family="sans-serif"> at0001</text></g><g class="node" transform="translate(393.42981540661066,135.8102834382056)"><circle class="outline" cx="0" cy="0" r="25" fill="#A5ABB6" stroke="#9AA1AC" stroke-width="2px"/><text text-anchor="middle" pointer-events="none" y="5" font-size="10px" fill="#FFFFFF" font-family="sans-serif"> openEH…</text></g><g class="node" transform="translate(475.0537352125191,244.61352562825002)"><circle class="outline" cx="0" cy="0" r="25" fill="#FB95AF" stroke="#E0849B" stroke-width="2px"/><text text-anchor="middle" pointer-events="none" y="0" font-size="10px" fill="#FFFFFF" font-family="sans-serif"> Date of</text><text text-anchor="middle" pointer-events="none" y="10" font-size="10px" fill="#FFFFFF" font-family="sans-serif"> Birth</text></g><g class="node" transform="translate(289.54488946625173,-218.34185193294616)"><circle class="outline" cx="0" cy="0" r="25" fill="#FF756E" stroke="#E06760" stroke-width="2px"/><text text-anchor="middle" pointer-events="none" y="0" font-size="10px" fill="#FFFFFF" font-family="sans-serif"> Obstetric</text><text text-anchor="middle" pointer-events="none" y="10" font-size="10px" fill="#FFFFFF" font-family="sans-serif"> Summary</text></g><g class="node" transform="translate(383.7780345149381,-155.72302812658296)"><circle class="outline" cx="0" cy="0" r="25" fill="#DE9BF9" stroke="#BF85D6" stroke-width="2px"/><text text-anchor="middle" pointer-events="none" y="5" font-size="10px" fill="#FFFFFF" font-family="sans-serif"> at0001</text></g><g class="node" transform="translate(487.1611309402731,-65.89273452790842)"><circle class="outline" cx="0" cy="0" r="25" fill="#FB95AF" stroke="#E0849B" stroke-width="2px"/><text text-anchor="middle" pointer-events="none" y="0" font-size="10px" fill="#FFFFFF" font-family="sans-serif"> Live</text><text text-anchor="middle" pointer-events="none" y="10" font-size="10px" fill="#FFFFFF" font-family="sans-serif"> Births</text></g><g class="node" transform="translate(512.0060168484307,-130.6677157560326)"><circle class="outline" cx="0" cy="0" r="25" fill="#FB95AF" stroke="#E0849B" stroke-width="2px"/><text text-anchor="middle" pointer-events="none" y="5" font-size="10px" fill="#FFFFFF" font-family="sans-serif"> Miscarri…</text></g><g class="node" transform="translate(494.8677902909557,-207.96098080098793)"><circle class="outline" cx="0" cy="0" r="25" fill="#FB95AF" stroke="#E0849B" stroke-width="2px"/><text text-anchor="middle" pointer-events="none" y="5" font-size="10px" fill="#FFFFFF" font-family="sans-serif"> Abortions</text></g><g class="node" transform="translate(421.6012774606138,-268.73416982039237)"><circle class="outline" cx="0" cy="0" r="25" fill="#FB95AF" stroke="#E0849B" stroke-width="2px"/><text text-anchor="middle" pointer-events="none" y="5" font-size="10px" fill="#FFFFFF" font-family="sans-serif"> Gravidity</text></g><g class="node" transform="translate(423.13594526274125,-37.63222936946737)"><circle class="outline" cx="0" cy="0" r="25" fill="#FB95AF" stroke="#E0849B" stroke-width="2px"/><text text-anchor="middle" pointer-events="none" y="0" font-size="10px" fill="#FFFFFF" font-family="sans-serif"> Ever</text><text text-anchor="middle" pointer-events="none" y="10" font-size="10px" fill="#FFFFFF" font-family="sans-serif"> Pregnant</text></g><g class="node" transform="translate(-137.6470137035761,-317.87324205439324)"><circle class="outline" cx="0" cy="0" r="25" fill="#FFD86E" stroke="#EDBA39" stroke-width="2px"/><text text-anchor="middle" pointer-events="none" y="0" font-size="10px" fill="#604A0E" font-family="sans-serif"> Self</text><text text-anchor="middle" pointer-events="none" y="10" font-size="10px" fill="#604A0E" font-family="sans-serif"> Monitori…</text></g><g class="node" transform="translate(-157.2364582355131,-126.09639549791348)"><circle class="outline" cx="0" cy="0" r="25" fill="#FFD86E" stroke="#EDBA39" stroke-width="2px"/><text text-anchor="middle" pointer-events="none" y="0" font-size="10px" fill="#604A0E" font-family="sans-serif"> Self</text><text text-anchor="middle" pointer-events="none" y="10" font-size="10px" fill="#604A0E" font-family="sans-serif"> Monitori…</text></g><g class="node" transform="translate(-245.68018127274428,-70.89960020401857)"><circle class="outline" cx="0" cy="0" r="25" fill="#A5ABB6" stroke="#9AA1AC" stroke-width="2px"/><text text-anchor="middle" pointer-events="none" y="5" font-size="10px" fill="#FFFFFF" font-family="sans-serif"> at0001</text></g><g class="node" transform="translate(-176.64609954190604,13.885208672914246)"><circle class="outline" cx="0" cy="0" r="25" fill="#A5ABB6" stroke="#9AA1AC" stroke-width="2px"/><text text-anchor="middle" pointer-events="none" y="5" font-size="10px" fill="#FFFFFF" font-family="sans-serif"> at0002</text></g><g class="node" transform="translate(-185.70889396797827,113.21578280982442)"><circle class="outline" cx="0" cy="0" r="25" fill="#DE9BF9" stroke="#BF85D6" stroke-width="2px"/><text text-anchor="middle" pointer-events="none" y="5" font-size="10px" fill="#FFFFFF" font-family="sans-serif"> at0003</text></g><g class="node" transform="translate(-222.94790538110232,206.23119897843407)"><circle class="outline" cx="0" cy="0" r="25" fill="#A5ABB6" stroke="#9AA1AC" stroke-width="2px"/><text text-anchor="middle" pointer-events="none" y="5" font-size="10px" fill="#FFFFFF" font-family="sans-serif"> openEH…</text></g><g class="node" transform="translate(-250.5389621484261,343.09885298069673)"><circle class="outline" cx="0" cy="0" r="25" fill="#FB95AF" stroke="#E0849B" stroke-width="2px"/><text text-anchor="middle" pointer-events="none" y="5" font-size="10px" fill="#FFFFFF" font-family="sans-serif"> Sympto…</text></g><g class="node" transform="translate(-188.15070002600848,351.1183190876902)"><circle class="outline" cx="0" cy="0" r="25" fill="#FB95AF" stroke="#E0849B" stroke-width="2px"/><text text-anchor="middle" pointer-events="none" y="0" font-size="10px" fill="#FFFFFF" font-family="sans-serif"> Episode</text><text text-anchor="middle" pointer-events="none" y="10" font-size="10px" fill="#FFFFFF" font-family="sans-serif"> Onset</text></g><g class="node" transform="translate(-139.8872737249858,310.30163726053877)"><circle class="outline" cx="0" cy="0" r="25" fill="#FB95AF" stroke="#E0849B" stroke-width="2px"/><text text-anchor="middle" pointer-events="none" y="0" font-size="10px" fill="#FFFFFF" font-family="sans-serif"> Severity</text><text text-anchor="middle" pointer-events="none" y="10" font-size="10px" fill="#FFFFFF" font-family="sans-serif"> Rating</text></g><g class="node" transform="translate(-307.7991545532999,300.8821533187637)"><circle class="outline" cx="0" cy="0" r="25" fill="#FB95AF" stroke="#E0849B" stroke-width="2px"/><text text-anchor="middle" pointer-events="none" y="5" font-size="10px" fill="#FFFFFF" font-family="sans-serif"> Episodic…</text></g><g class="node" transform="translate(-251.06556908376177,-285.2218138707027)"><circle class="outline" cx="0" cy="0" r="25" fill="#A5ABB6" stroke="#9AA1AC" stroke-width="2px"/><text text-anchor="middle" pointer-events="none" y="5" font-size="10px" fill="#FFFFFF" font-family="sans-serif"> at0001</text></g><g class="node" transform="translate(-340.8889644805145,-223.2879867539526)"><circle class="outline" cx="0" cy="0" r="25" fill="#A5ABB6" stroke="#9AA1AC" stroke-width="2px"/><text text-anchor="middle" pointer-events="none" y="5" font-size="10px" fill="#FFFFFF" font-family="sans-serif"> at0002</text></g><g class="node" transform="translate(-406.8018937914917,-132.59108089214237)"><circle class="outline" cx="0" cy="0" r="25" fill="#DE9BF9" stroke="#BF85D6" stroke-width="2px"/><text text-anchor="middle" pointer-events="none" y="5" font-size="10px" fill="#FFFFFF" font-family="sans-serif"> at0003</text></g><g class="node" transform="translate(-437.3128634340146,-31.555627029748813)"><circle class="outline" cx="0" cy="0" r="25" fill="#A5ABB6" stroke="#9AA1AC" stroke-width="2px"/><text text-anchor="middle" pointer-events="none" y="5" font-size="10px" fill="#FFFFFF" font-family="sans-serif"> openEH…</text></g><g class="node" transform="translate(-446.1242539786923,98.46552648123098)"><circle class="outline" cx="0" cy="0" r="25" fill="#FB95AF" stroke="#E0849B" stroke-width="2px"/><text text-anchor="middle" pointer-events="none" y="5" font-size="10px" fill="#FFFFFF" font-family="sans-serif"> Episodic…</text></g><g class="node" transform="translate(-370.5046649896493,62.5093477549586)"><circle class="outline" cx="0" cy="0" r="25" fill="#FB95AF" stroke="#E0849B" stroke-width="2px"/><text text-anchor="middle" pointer-events="none" y="5" font-size="10px" fill="#FFFFFF" font-family="sans-serif"> Sympto…</text></g><g class="node" transform="translate(-534.1929787201174,-75.54149292292666)"><circle class="outline" cx="0" cy="0" r="25" fill="#FB95AF" stroke="#E0849B" stroke-width="2px"/><text text-anchor="middle" pointer-events="none" y="0" font-size="10px" fill="#FFFFFF" font-family="sans-serif"> Episode</text><text text-anchor="middle" pointer-events="none" y="10" font-size="10px" fill="#FFFFFF" font-family="sans-serif"> Onset</text></g><g class="node" transform="translate(-515.8304081334552,59.666866290030384)"><circle class="outline" cx="0" cy="0" r="25" fill="#FB95AF" stroke="#E0849B" stroke-width="2px"/><text text-anchor="middle" pointer-events="none" y="0" font-size="10px" fill="#FFFFFF" font-family="sans-serif"> Severity</text><text text-anchor="middle" pointer-events="none" y="10" font-size="10px" fill="#FFFFFF" font-family="sans-serif"> Rating</text></g></g></svg>